<?xml version="1.0" encoding="UTF-8"?>
<!-- Generator: visioncortex VTracer 0.6.4 -->
<svg version="1.1" xmlns="http://www.w3.org/2000/svg" viewBox="0 0 128 128" width="128" height="128">
<path d="M0 0 C9.75 9.13 14.43 19.58 14.89 32.75 C14.65 45.72 9.7 56.04 0.39 65.06 C-6.32 70.63 -14.67 75.28 -23.48 76 C-20.18 76.33 -16.88 76.66 -13.48 77 C-12.36 82.75 -12.36 82.75 -13.48 85 C-18.81 85 -24.15 85 -29.48 85 C-30.47 85.33 -31.46 85.66 -32.48 86 C-34.74 85.88 -34.74 85.88 -37.17 85.56 C-37.98 85.46 -38.78 85.35 -39.62 85.25 C-40.54 85.12 -40.54 85.12 -41.48 85 C-41.48 83.68 -41.48 82.36 -41.48 81 C-41.98 82.98 -41.98 82.98 -42.48 85 C-43.04 84.81 -43.59 84.62 -44.17 84.43 C-46.88 83.92 -48.82 84.33 -51.48 85 C-53.09 81.78 -52.54 78.56 -52.48 75 C-51.49 75 -50.5 75 -49.48 75 C-49.48 75.99 -49.48 76.98 -49.48 78 C-46.17 78.02 -42.86 78.04 -39.54 78.06 C-38.12 78.07 -38.12 78.07 -36.68 78.08 C-35.78 78.09 -34.88 78.09 -33.95 78.09 C-33.12 78.1 -32.29 78.1 -31.43 78.11 C-29.48 78.21 -29.48 78.21 -28.48 77 C-28.48 76.34 -28.48 75.68 -28.48 75 C-29.55 75.08 -30.61 75.16 -31.71 75.24 C-44.78 75.93 -53.5 72.99 -63.92 64.75 C-73.01 56.03 -77.52 45.44 -77.86 33 C-77.54 20.78 -73.16 10.9 -64.98 1.81 C-47.02 -15.22 -18.97 -15.32 0 0 Z M-53.48 8 C-57.24 13.24 -57.89 17.6 -57.48 24 C-55.04 36.92 -46.36 51.45 -35.48 59 C-30.92 42.7 -26.89 26.3 -35.36 10.5 C-38.43 6.88 -40.74 5.21 -45.48 4.62 C-48.97 5.06 -50.72 5.83 -53.48 8 Z M-22.17 26.56 C-29.22 35.97 -27.79 47.88 -27.48 59 C-17.29 51.81 -7.68 43.78 -4.54 31.25 C-4.48 27.82 -4.72 25.93 -6.48 23 C-12.42 18.97 -17.46 22.07 -22.17 26.56 Z M-49.48 80 C-48.48 83 -48.48 83 -48.48 83 Z M-35.48 80 C-34.48 82 -34.48 82 -34.48 82 Z M-32.48 80 C-31.48 84 -31.48 84 -31.48 84 Z M-26.48 80 C-25.48 83 -25.48 83 -25.48 83 Z " fill="#020202" transform="translate(96.48046875,20.00390625)"/>
<path d="M0 0 C0.99 0.33 1.98 0.66 3 1 C2.34 1.66 1.68 2.32 1 3 C0.01 4.48 0.01 4.48 -1 6 C-1.99 6 -2.98 6 -4 6 C-2.85 3.53 -1.95 1.95 0 0 Z " fill="#080808" transform="translate(83,66)"/>
</svg>
